# MagicaVoxel @ Ephtracy

# group
o 

# material
mtllib caveentrance.mtl
usemtl palette

# normals
vn -1 0 0
vn 1 0 0
vn 0 0 1
vn 0 0 -1
vn 0 -1 0
vn 0 1 0

# texcoords
vt 0.537109 0.5
vt 0.845703 0.5
vt 0.896484 0.5
vt 0.982422 0.5
vt 0.994141 0.5

# verts
v 0 2 0
v 0 2 -4
v 0 2.2 0
v 0 2.2 -4
v 0 2.3 0
v 0 2.3 -4
v 0.1 2.3 -0.1
v 0.1 2.3 -3.9
v 0.1 2.4 -0.1
v 0.1 2.4 -3.9
v 0.2 2.4 -0.2
v 0.2 2.4 -3.8
v 0.2 2.5 -0.2
v 0.2 2.5 -3.8
v 0.3 2.5 -0.3
v 0.3 2.5 -3.7
v 0.3 2.6 -0.3
v 0.3 2.6 -3.7
v 0.4 2.6 -0.4
v 0.4 2.6 -3.6
v 0.4 2.7 -0.4
v 0.4 2.7 -3.6
v 0.5 2.7 -0.5
v 0.5 2.7 -3.5
v 0.5 2.8 -0.5
v 0.5 2.8 -3.5
v 0.6 2.8 -0.6
v 0.6 2.8 -3.4
v 0.6 2.9 -0.6
v 0.6 2.9 -3.4
v 1.4 2.3 0
v 1.4 2.3 -0.1
v 1.4 2.4 -0.1
v 1.4 2.4 -0.2
v 1.4 2.5 -0.2
v 1.4 2.5 -0.3
v 1.4 2.6 -0.3
v 1.4 2.6 -0.4
v 1.4 2.7 -0.4
v 1.4 2.7 -0.5
v 1.4 2.8 -0.5
v 1.4 2.8 -0.6
v 1.4 2.9 0
v 1.4 2.9 -0.6
v 2.4 2 -0.5
v 2.4 2 -0.8
v 2.4 2.1 -0.4
v 2.4 2.1 -0.5
v 2.4 2.2 -0.2
v 2.4 2.2 -0.4
v 2.4 2.2 -0.7
v 2.4 2.2 -0.8
v 2.4 2.3 0
v 2.4 2.3 -0.1
v 2.4 2.3 -0.2
v 2.4 2.8 0
v 2.4 2.8 -0.6
v 2.4 2.8 -0.7
v 2.8 2.3 0
v 2.8 2.3 -0.1
v 2.8 2.4 -0.1
v 2.8 2.4 -0.2
v 2.8 2.5 -0.2
v 2.8 2.5 -0.3
v 2.8 2.6 0
v 2.8 2.6 -0.3
v 3.1 2 -0.1
v 3.1 2 -0.3
v 3.1 2.1 -0.3
v 3.1 2.2 -0.1
v 3.1 2.2 -0.3
v 3.1 2.3 0
v 3.1 2.3 -0.1
v 3.1 2.3 -0.3
v 3.1 2.5 0
v 3.1 2.5 -0.3
v 1.5 2 -0.5
v 1.5 2 -0.8
v 1.5 2.1 -0.4
v 1.5 2.1 -0.5
v 1.5 2.2 -0.2
v 1.5 2.2 -0.4
v 1.5 2.2 -0.7
v 1.5 2.2 -0.8
v 1.5 2.3 0
v 1.5 2.3 -0.1
v 1.5 2.3 -0.2
v 1.5 2.8 0
v 1.5 2.8 -0.6
v 1.5 2.8 -0.7
v 2.5 2.3 0
v 2.5 2.3 -0.1
v 2.5 2.4 -0.1
v 2.5 2.4 -0.2
v 2.5 2.5 -0.2
v 2.5 2.5 -0.3
v 2.5 2.6 -0.3
v 2.5 2.6 -0.4
v 2.5 2.7 -0.4
v 2.5 2.7 -0.5
v 2.5 2.8 -0.5
v 2.5 2.8 -0.6
v 2.5 2.9 0
v 2.5 2.9 -0.6
v 2.9 2 -0.1
v 2.9 2 -0.3
v 2.9 2.1 -0.3
v 2.9 2.2 -0.1
v 2.9 2.2 -0.3
v 2.9 2.3 0
v 2.9 2.3 -0.1
v 2.9 2.3 -0.3
v 2.9 2.5 0
v 2.9 2.5 -0.3
v 3.2 2.3 0
v 3.2 2.3 -0.1
v 3.2 2.4 -0.1
v 3.2 2.4 -0.2
v 3.2 2.5 -0.2
v 3.2 2.5 -0.3
v 3.2 2.6 0
v 3.2 2.6 -0.3
v 3.4 2.8 -0.6
v 3.4 2.8 -3.4
v 3.4 2.9 -0.6
v 3.4 2.9 -3.4
v 3.5 2.7 -0.5
v 3.5 2.7 -3.5
v 3.5 2.8 -0.5
v 3.5 2.8 -3.5
v 3.6 2.6 -0.4
v 3.6 2.6 -3.6
v 3.6 2.7 -0.4
v 3.6 2.7 -3.6
v 3.7 2.5 -0.3
v 3.7 2.5 -3.7
v 3.7 2.6 -0.3
v 3.7 2.6 -3.7
v 3.8 2.4 -0.2
v 3.8 2.4 -3.8
v 3.8 2.5 -0.2
v 3.8 2.5 -3.8
v 3.9 2.3 -0.1
v 3.9 2.3 -3.9
v 3.9 2.4 -0.1
v 3.9 2.4 -3.9
v 4 2 0
v 4 2 -4
v 4 2.2 0
v 4 2.2 -4
v 4 2.3 0
v 4 2.3 -4
v 0 2 0
v 0 2.2 0
v 0 2.3 0
v 1.4 2.3 0
v 1.4 2.9 0
v 1.5 2.3 0
v 1.5 2.8 0
v 2.4 2.3 0
v 2.4 2.8 0
v 2.5 2.3 0
v 2.5 2.9 0
v 2.8 2.3 0
v 2.8 2.6 0
v 2.9 2.3 0
v 2.9 2.5 0
v 3.1 2.3 0
v 3.1 2.5 0
v 3.2 2.3 0
v 3.2 2.6 0
v 4 2 0
v 4 2.2 0
v 4 2.3 0
v 0.1 2.3 -0.1
v 0.1 2.4 -0.1
v 1.4 2.3 -0.1
v 1.4 2.4 -0.1
v 2.5 2.3 -0.1
v 2.5 2.4 -0.1
v 2.8 2.3 -0.1
v 2.8 2.4 -0.1
v 3.2 2.3 -0.1
v 3.2 2.4 -0.1
v 3.9 2.3 -0.1
v 3.9 2.4 -0.1
v 0.2 2.4 -0.2
v 0.2 2.5 -0.2
v 1.4 2.4 -0.2
v 1.4 2.5 -0.2
v 2.5 2.4 -0.2
v 2.5 2.5 -0.2
v 2.8 2.4 -0.2
v 2.8 2.5 -0.2
v 3.2 2.4 -0.2
v 3.2 2.5 -0.2
v 3.8 2.4 -0.2
v 3.8 2.5 -0.2
v 0.3 2.5 -0.3
v 0.3 2.6 -0.3
v 1.4 2.5 -0.3
v 1.4 2.6 -0.3
v 2.5 2.5 -0.3
v 2.5 2.6 -0.3
v 2.8 2.5 -0.3
v 2.8 2.6 -0.3
v 2.9 2 -0.3
v 2.9 2.1 -0.3
v 2.9 2.2 -0.3
v 2.9 2.3 -0.3
v 2.9 2.5 -0.3
v 3.1 2 -0.3
v 3.1 2.1 -0.3
v 3.1 2.2 -0.3
v 3.1 2.3 -0.3
v 3.1 2.5 -0.3
v 3.2 2.5 -0.3
v 3.2 2.6 -0.3
v 3.7 2.5 -0.3
v 3.7 2.6 -0.3
v 0.4 2.6 -0.4
v 0.4 2.7 -0.4
v 1.4 2.6 -0.4
v 1.4 2.7 -0.4
v 2.5 2.6 -0.4
v 2.5 2.7 -0.4
v 3.6 2.6 -0.4
v 3.6 2.7 -0.4
v 0.5 2.7 -0.5
v 0.5 2.8 -0.5
v 1.4 2.7 -0.5
v 1.4 2.8 -0.5
v 2.5 2.7 -0.5
v 2.5 2.8 -0.5
v 3.5 2.7 -0.5
v 3.5 2.8 -0.5
v 0.6 2.8 -0.6
v 0.6 2.9 -0.6
v 1.4 2.8 -0.6
v 1.4 2.9 -0.6
v 2.5 2.8 -0.6
v 2.5 2.9 -0.6
v 3.4 2.8 -0.6
v 3.4 2.9 -0.6
v 1.5 2.2 -0.7
v 1.5 2.8 -0.7
v 2.4 2.2 -0.7
v 2.4 2.8 -0.7
v 1.5 2 -0.8
v 1.5 2.2 -0.8
v 2.4 2 -0.8
v 2.4 2.2 -0.8
v 2.9 2 -0.1
v 2.9 2.2 -0.1
v 2.9 2.3 -0.1
v 3.1 2 -0.1
v 3.1 2.2 -0.1
v 3.1 2.3 -0.1
v 1.5 2.2 -0.2
v 1.5 2.3 -0.2
v 2.4 2.2 -0.2
v 2.4 2.3 -0.2
v 1.5 2.1 -0.4
v 1.5 2.2 -0.4
v 2.4 2.1 -0.4
v 2.4 2.2 -0.4
v 1.5 2 -0.5
v 1.5 2.1 -0.5
v 2.4 2 -0.5
v 2.4 2.1 -0.5
v 0.6 2.8 -3.4
v 0.6 2.9 -3.4
v 3.4 2.8 -3.4
v 3.4 2.9 -3.4
v 0.5 2.7 -3.5
v 0.5 2.8 -3.5
v 3.5 2.7 -3.5
v 3.5 2.8 -3.5
v 0.4 2.6 -3.6
v 0.4 2.7 -3.6
v 3.6 2.6 -3.6
v 3.6 2.7 -3.6
v 0.3 2.5 -3.7
v 0.3 2.6 -3.7
v 3.7 2.5 -3.7
v 3.7 2.6 -3.7
v 0.2 2.4 -3.8
v 0.2 2.5 -3.8
v 3.8 2.4 -3.8
v 3.8 2.5 -3.8
v 0.1 2.3 -3.9
v 0.1 2.4 -3.9
v 3.9 2.3 -3.9
v 3.9 2.4 -3.9
v 0 2 -4
v 0 2.2 -4
v 0 2.3 -4
v 4 2 -4
v 4 2.2 -4
v 4 2.3 -4
v 0 2 0
v 4 2 0
v 2.9 2 -0.1
v 3.1 2 -0.1
v 2.9 2 -0.3
v 3.1 2 -0.3
v 1.5 2 -0.5
v 2.4 2 -0.5
v 1.5 2 -0.8
v 2.4 2 -0.8
v 0 2 -4
v 4 2 -4
v 1.5 2.2 -0.7
v 2.4 2.2 -0.7
v 1.5 2.2 -0.8
v 2.4 2.2 -0.8
v 2.9 2.5 0
v 3.1 2.5 0
v 2.9 2.5 -0.3
v 3.1 2.5 -0.3
v 1.5 2.8 0
v 2.4 2.8 0
v 1.5 2.8 -0.6
v 2.4 2.8 -0.6
v 1.5 2.8 -0.7
v 2.4 2.8 -0.7
v 1.5 2.1 -0.4
v 2.4 2.1 -0.4
v 1.5 2.1 -0.5
v 2.4 2.1 -0.5
v 1.5 2.2 -0.2
v 2.4 2.2 -0.2
v 1.5 2.2 -0.4
v 2.4 2.2 -0.4
v 0 2.3 0
v 1.4 2.3 0
v 1.5 2.3 0
v 2.4 2.3 0
v 2.5 2.3 0
v 2.8 2.3 0
v 2.9 2.3 0
v 3.1 2.3 0
v 3.2 2.3 0
v 4 2.3 0
v 0.1 2.3 -0.1
v 1.4 2.3 -0.1
v 1.5 2.3 -0.1
v 2.4 2.3 -0.1
v 2.5 2.3 -0.1
v 2.8 2.3 -0.1
v 2.9 2.3 -0.1
v 3.1 2.3 -0.1
v 3.2 2.3 -0.1
v 3.9 2.3 -0.1
v 1.5 2.3 -0.2
v 2.4 2.3 -0.2
v 0.1 2.3 -3.9
v 3.9 2.3 -3.9
v 0 2.3 -4
v 4 2.3 -4
v 0.1 2.4 -0.1
v 1.4 2.4 -0.1
v 2.5 2.4 -0.1
v 2.8 2.4 -0.1
v 3.2 2.4 -0.1
v 3.9 2.4 -0.1
v 0.2 2.4 -0.2
v 1.4 2.4 -0.2
v 2.5 2.4 -0.2
v 2.8 2.4 -0.2
v 3.2 2.4 -0.2
v 3.8 2.4 -0.2
v 0.2 2.4 -3.8
v 3.8 2.4 -3.8
v 0.1 2.4 -3.9
v 3.9 2.4 -3.9
v 0.2 2.5 -0.2
v 1.4 2.5 -0.2
v 2.5 2.5 -0.2
v 2.8 2.5 -0.2
v 3.2 2.5 -0.2
v 3.8 2.5 -0.2
v 0.3 2.5 -0.3
v 1.4 2.5 -0.3
v 2.5 2.5 -0.3
v 2.8 2.5 -0.3
v 3.2 2.5 -0.3
v 3.7 2.5 -0.3
v 0.3 2.5 -3.7
v 3.7 2.5 -3.7
v 0.2 2.5 -3.8
v 3.8 2.5 -3.8
v 2.8 2.6 0
v 3.2 2.6 0
v 0.3 2.6 -0.3
v 1.4 2.6 -0.3
v 2.5 2.6 -0.3
v 2.8 2.6 -0.3
v 3.2 2.6 -0.3
v 3.7 2.6 -0.3
v 0.4 2.6 -0.4
v 1.4 2.6 -0.4
v 2.5 2.6 -0.4
v 3.6 2.6 -0.4
v 0.4 2.6 -3.6
v 3.6 2.6 -3.6
v 0.3 2.6 -3.7
v 3.7 2.6 -3.7
v 0.4 2.7 -0.4
v 1.4 2.7 -0.4
v 2.5 2.7 -0.4
v 3.6 2.7 -0.4
v 0.5 2.7 -0.5
v 1.4 2.7 -0.5
v 2.5 2.7 -0.5
v 3.5 2.7 -0.5
v 0.5 2.7 -3.5
v 3.5 2.7 -3.5
v 0.4 2.7 -3.6
v 3.6 2.7 -3.6
v 0.5 2.8 -0.5
v 1.4 2.8 -0.5
v 2.5 2.8 -0.5
v 3.5 2.8 -0.5
v 0.6 2.8 -0.6
v 1.4 2.8 -0.6
v 2.5 2.8 -0.6
v 3.4 2.8 -0.6
v 0.6 2.8 -3.4
v 3.4 2.8 -3.4
v 0.5 2.8 -3.5
v 3.5 2.8 -3.5
v 1.4 2.9 0
v 2.5 2.9 0
v 0.6 2.9 -0.6
v 1.4 2.9 -0.6
v 2.5 2.9 -0.6
v 3.4 2.9 -0.6
v 0.6 2.9 -3.4
v 3.4 2.9 -3.4

# faces
f 3/1/1 2/1/1 1/1/1
f 4/1/1 2/1/1 3/1/1
f 5/3/1 4/3/1 3/3/1
f 6/3/1 4/3/1 5/3/1
f 9/3/1 8/3/1 7/3/1
f 10/3/1 8/3/1 9/3/1
f 13/3/1 12/3/1 11/3/1
f 14/3/1 12/3/1 13/3/1
f 17/3/1 16/3/1 15/3/1
f 18/3/1 16/3/1 17/3/1
f 21/3/1 20/3/1 19/3/1
f 22/3/1 20/3/1 21/3/1
f 25/3/1 24/3/1 23/3/1
f 26/3/1 24/3/1 25/3/1
f 29/3/1 28/3/1 27/3/1
f 30/3/1 28/3/1 29/3/1
f 33/4/1 32/4/1 31/4/1
f 35/4/1 34/4/1 33/4/1
f 37/4/1 36/4/1 35/4/1
f 39/4/1 38/4/1 37/4/1
f 41/4/1 40/4/1 39/4/1
f 43/4/1 33/4/1 31/4/1
f 43/4/1 42/4/1 41/4/1
f 43/4/1 41/4/1 39/4/1
f 43/4/1 39/4/1 37/4/1
f 43/4/1 37/4/1 35/4/1
f 43/4/1 35/4/1 33/4/1
f 44/4/1 42/4/1 43/4/1
f 48/1/1 46/1/1 45/1/1
f 50/1/1 48/1/1 47/1/1
f 51/1/1 46/1/1 48/1/1
f 51/1/1 48/1/1 50/1/1
f 52/1/1 46/1/1 51/1/1
f 55/4/1 50/4/1 49/4/1
f 55/4/1 51/4/1 50/4/1
f 56/4/1 54/4/1 53/4/1
f 56/4/1 55/4/1 54/4/1
f 57/4/1 51/4/1 55/4/1
f 57/4/1 55/4/1 56/4/1
f 58/4/1 51/4/1 57/4/1
f 61/2/1 60/2/1 59/2/1
f 63/2/1 62/2/1 61/2/1
f 65/2/1 61/2/1 59/2/1
f 65/2/1 64/2/1 63/2/1
f 65/2/1 63/2/1 61/2/1
f 66/2/1 64/2/1 65/2/1
f 69/1/1 68/1/1 67/1/1
f 70/1/1 69/1/1 67/1/1
f 71/1/1 69/1/1 70/1/1
f 73/3/1 71/3/1 70/3/1
f 74/3/1 71/3/1 73/3/1
f 75/2/1 73/2/1 72/2/1
f 75/2/1 74/2/1 73/2/1
f 76/2/1 74/2/1 75/2/1
f 77/1/2 78/1/2 80/1/2
f 79/1/2 80/1/2 82/1/2
f 80/1/2 78/1/2 83/1/2
f 82/1/2 80/1/2 83/1/2
f 83/1/2 78/1/2 84/1/2
f 81/4/2 82/4/2 87/4/2
f 82/4/2 83/4/2 87/4/2
f 85/4/2 86/4/2 88/4/2
f 86/4/2 87/4/2 88/4/2
f 87/4/2 83/4/2 89/4/2
f 88/4/2 87/4/2 89/4/2
f 89/4/2 83/4/2 90/4/2
f 91/4/2 92/4/2 93/4/2
f 93/4/2 94/4/2 95/4/2
f 95/4/2 96/4/2 97/4/2
f 97/4/2 98/4/2 99/4/2
f 99/4/2 100/4/2 101/4/2
f 91/4/2 93/4/2 103/4/2
f 101/4/2 102/4/2 103/4/2
f 99/4/2 101/4/2 103/4/2
f 97/4/2 99/4/2 103/4/2
f 95/4/2 97/4/2 103/4/2
f 93/4/2 95/4/2 103/4/2
f 103/4/2 102/4/2 104/4/2
f 105/1/2 106/1/2 107/1/2
f 105/1/2 107/1/2 108/1/2
f 108/1/2 107/1/2 109/1/2
f 108/3/2 109/3/2 111/3/2
f 111/3/2 109/3/2 112/3/2
f 110/2/2 111/2/2 113/2/2
f 111/2/2 112/2/2 113/2/2
f 113/2/2 112/2/2 114/2/2
f 115/2/2 116/2/2 117/2/2
f 117/2/2 118/2/2 119/2/2
f 115/2/2 117/2/2 121/2/2
f 119/2/2 120/2/2 121/2/2
f 117/2/2 119/2/2 121/2/2
f 121/2/2 120/2/2 122/2/2
f 123/3/2 124/3/2 125/3/2
f 125/3/2 124/3/2 126/3/2
f 127/3/2 128/3/2 129/3/2
f 129/3/2 128/3/2 130/3/2
f 131/3/2 132/3/2 133/3/2
f 133/3/2 132/3/2 134/3/2
f 135/3/2 136/3/2 137/3/2
f 137/3/2 136/3/2 138/3/2
f 139/3/2 140/3/2 141/3/2
f 141/3/2 140/3/2 142/3/2
f 143/3/2 144/3/2 145/3/2
f 145/3/2 144/3/2 146/3/2
f 147/1/2 148/1/2 149/1/2
f 149/1/2 148/1/2 150/1/2
f 149/3/2 150/3/2 151/3/2
f 151/3/2 150/3/2 152/3/2
f 156/3/3 155/3/3 154/3/3
f 158/3/3 156/3/3 154/3/3
f 158/4/3 157/4/3 156/4/3
f 159/4/3 157/4/3 158/4/3
f 160/3/3 158/3/3 154/3/3
f 161/4/3 157/4/3 159/4/3
f 162/3/3 160/3/3 154/3/3
f 162/4/3 161/4/3 160/4/3
f 163/4/3 157/4/3 161/4/3
f 163/4/3 161/4/3 162/4/3
f 164/3/3 162/3/3 154/3/3
f 166/3/3 164/3/3 154/3/3
f 166/2/3 165/2/3 164/2/3
f 167/2/3 165/2/3 166/2/3
f 168/3/3 166/3/3 154/3/3
f 169/2/3 165/2/3 167/2/3
f 170/3/3 168/3/3 154/3/3
f 170/2/3 169/2/3 168/2/3
f 171/2/3 165/2/3 169/2/3
f 171/2/3 169/2/3 170/2/3
f 172/1/3 154/1/3 153/1/3
f 173/3/3 170/3/3 154/3/3
f 173/1/3 154/1/3 172/1/3
f 174/3/3 170/3/3 173/3/3
f 177/3/3 176/3/3 175/3/3
f 178/3/3 176/3/3 177/3/3
f 181/3/3 180/3/3 179/3/3
f 182/3/3 180/3/3 181/3/3
f 185/3/3 184/3/3 183/3/3
f 186/3/3 184/3/3 185/3/3
f 189/3/3 188/3/3 187/3/3
f 190/3/3 188/3/3 189/3/3
f 193/3/3 192/3/3 191/3/3
f 194/3/3 192/3/3 193/3/3
f 197/3/3 196/3/3 195/3/3
f 198/3/3 196/3/3 197/3/3
f 201/3/3 200/3/3 199/3/3
f 202/3/3 200/3/3 201/3/3
f 205/3/3 204/3/3 203/3/3
f 206/3/3 204/3/3 205/3/3
f 212/1/3 208/1/3 207/1/3
f 213/5/3 211/5/3 210/5/3
f 213/1/3 208/1/3 212/1/3
f 213/5/3 209/5/3 208/5/3
f 213/5/3 210/5/3 209/5/3
f 214/5/3 211/5/3 213/5/3
f 215/5/3 211/5/3 214/5/3
f 216/5/3 211/5/3 215/5/3
f 219/3/3 218/3/3 217/3/3
f 220/3/3 218/3/3 219/3/3
f 223/3/3 222/3/3 221/3/3
f 224/3/3 222/3/3 223/3/3
f 227/3/3 226/3/3 225/3/3
f 228/3/3 226/3/3 227/3/3
f 231/3/3 230/3/3 229/3/3
f 232/3/3 230/3/3 231/3/3
f 235/3/3 234/3/3 233/3/3
f 236/3/3 234/3/3 235/3/3
f 239/3/3 238/3/3 237/3/3
f 240/3/3 238/3/3 239/3/3
f 243/3/3 242/3/3 241/3/3
f 244/3/3 242/3/3 243/3/3
f 247/5/3 246/5/3 245/5/3
f 248/5/3 246/5/3 247/5/3
f 251/1/3 250/1/3 249/1/3
f 252/1/3 250/1/3 251/1/3
f 253/1/4 254/1/4 256/1/4
f 254/3/4 255/3/4 257/3/4
f 256/1/4 254/1/4 257/1/4
f 257/3/4 255/3/4 258/3/4
f 259/1/4 260/1/4 261/1/4
f 261/1/4 260/1/4 262/1/4
f 263/1/4 264/1/4 265/1/4
f 265/1/4 264/1/4 266/1/4
f 267/1/4 268/1/4 269/1/4
f 269/1/4 268/1/4 270/1/4
f 271/3/4 272/3/4 273/3/4
f 273/3/4 272/3/4 274/3/4
f 275/3/4 276/3/4 277/3/4
f 277/3/4 276/3/4 278/3/4
f 279/3/4 280/3/4 281/3/4
f 281/3/4 280/3/4 282/3/4
f 283/3/4 284/3/4 285/3/4
f 285/3/4 284/3/4 286/3/4
f 287/3/4 288/3/4 289/3/4
f 289/3/4 288/3/4 290/3/4
f 291/3/4 292/3/4 293/3/4
f 293/3/4 292/3/4 294/3/4
f 295/1/4 296/1/4 298/1/4
f 296/3/4 297/3/4 299/3/4
f 298/1/4 296/1/4 299/1/4
f 299/3/4 297/3/4 300/3/4
f 303/1/5 302/1/5 301/1/5
f 304/1/5 302/1/5 303/1/5
f 305/1/5 303/1/5 301/1/5
f 306/1/5 302/1/5 304/1/5
f 307/1/5 305/1/5 301/1/5
f 307/1/5 306/1/5 305/1/5
f 308/1/5 306/1/5 307/1/5
f 309/1/5 307/1/5 301/1/5
f 310/1/5 306/1/5 308/1/5
f 311/1/5 309/1/5 301/1/5
f 311/1/5 310/1/5 309/1/5
f 312/1/5 302/1/5 306/1/5
f 312/1/5 310/1/5 311/1/5
f 312/1/5 306/1/5 310/1/5
f 315/5/5 314/5/5 313/5/5
f 316/5/5 314/5/5 315/5/5
f 319/2/5 318/2/5 317/2/5
f 320/2/5 318/2/5 319/2/5
f 323/4/5 322/4/5 321/4/5
f 324/4/5 322/4/5 323/4/5
f 325/3/5 324/3/5 323/3/5
f 326/3/5 324/3/5 325/3/5
f 327/1/6 328/1/6 329/1/6
f 329/1/6 328/1/6 330/1/6
f 331/1/6 332/1/6 333/1/6
f 333/1/6 332/1/6 334/1/6
f 335/3/6 336/3/6 345/3/6
f 345/3/6 336/3/6 346/3/6
f 337/3/6 338/3/6 347/3/6
f 347/3/6 338/3/6 348/3/6
f 339/3/6 340/3/6 349/3/6
f 349/3/6 340/3/6 350/3/6
f 341/3/6 342/3/6 351/3/6
f 351/3/6 342/3/6 352/3/6
f 343/3/6 344/3/6 353/3/6
f 353/3/6 344/3/6 354/3/6
f 347/1/6 348/1/6 355/1/6
f 355/1/6 348/1/6 356/1/6
f 335/3/6 345/3/6 357/3/6
f 354/3/6 344/3/6 358/3/6
f 335/3/6 357/3/6 359/3/6
f 357/3/6 358/3/6 359/3/6
f 358/3/6 344/3/6 360/3/6
f 359/3/6 358/3/6 360/3/6
f 361/3/6 362/3/6 367/3/6
f 367/3/6 362/3/6 368/3/6
f 363/3/6 364/3/6 369/3/6
f 369/3/6 364/3/6 370/3/6
f 365/3/6 366/3/6 371/3/6
f 371/3/6 366/3/6 372/3/6
f 361/3/6 367/3/6 373/3/6
f 372/3/6 366/3/6 374/3/6
f 361/3/6 373/3/6 375/3/6
f 373/3/6 374/3/6 375/3/6
f 374/3/6 366/3/6 376/3/6
f 375/3/6 374/3/6 376/3/6
f 377/3/6 378/3/6 383/3/6
f 383/3/6 378/3/6 384/3/6
f 379/3/6 380/3/6 385/3/6
f 385/3/6 380/3/6 386/3/6
f 381/3/6 382/3/6 387/3/6
f 387/3/6 382/3/6 388/3/6
f 377/3/6 383/3/6 389/3/6
f 388/3/6 382/3/6 390/3/6
f 377/3/6 389/3/6 391/3/6
f 389/3/6 390/3/6 391/3/6
f 390/3/6 382/3/6 392/3/6
f 391/3/6 390/3/6 392/3/6
f 393/2/6 394/2/6 398/2/6
f 398/2/6 394/2/6 399/2/6
f 395/3/6 396/3/6 401/3/6
f 401/3/6 396/3/6 402/3/6
f 399/3/6 400/3/6 403/3/6
f 397/3/6 398/3/6 403/3/6
f 398/3/6 399/3/6 403/3/6
f 403/3/6 400/3/6 404/3/6
f 395/3/6 401/3/6 405/3/6
f 404/3/6 400/3/6 406/3/6
f 395/3/6 405/3/6 407/3/6
f 405/3/6 406/3/6 407/3/6
f 406/3/6 400/3/6 408/3/6
f 407/3/6 406/3/6 408/3/6
f 409/3/6 410/3/6 413/3/6
f 413/3/6 410/3/6 414/3/6
f 411/3/6 412/3/6 415/3/6
f 415/3/6 412/3/6 416/3/6
f 409/3/6 413/3/6 417/3/6
f 416/3/6 412/3/6 418/3/6
f 409/3/6 417/3/6 419/3/6
f 417/3/6 418/3/6 419/3/6
f 418/3/6 412/3/6 420/3/6
f 419/3/6 418/3/6 420/3/6
f 421/3/6 422/3/6 425/3/6
f 425/3/6 422/3/6 426/3/6
f 423/3/6 424/3/6 427/3/6
f 427/3/6 424/3/6 428/3/6
f 421/3/6 425/3/6 429/3/6
f 428/3/6 424/3/6 430/3/6
f 421/3/6 429/3/6 431/3/6
f 429/3/6 430/3/6 431/3/6
f 430/3/6 424/3/6 432/3/6
f 431/3/6 430/3/6 432/3/6
f 433/4/6 434/4/6 436/4/6
f 436/4/6 434/4/6 437/4/6
f 435/3/6 436/3/6 439/3/6
f 437/3/6 438/3/6 439/3/6
f 436/3/6 437/3/6 439/3/6
f 439/3/6 438/3/6 440/3/6
